<svg width="141" height="32" viewBox="0 0 141 32" fill="none" xmlns="http://www.w3.org/2000/svg">
<path d="M15.3767 17.5718C16.1679 19.3051 16.4316 19.908 16.4316 21.9898V24.75H13.6056V20.0964L8.27362 8.5H11.2223L15.3767 17.5718ZM18.8621 8.5L15.4049 16.3564H18.278L21.7446 8.5H18.8621Z" fill="#262626"/>
<path fill-rule="evenodd" clip-rule="evenodd" d="M15 28.3438C21.8173 28.3438 27.3438 22.8173 27.3438 16C27.3438 9.18274 21.8173 3.65625 15 3.65625C8.18274 3.65625 2.65625 9.18274 2.65625 16C2.65625 22.8173 8.18274 28.3438 15 28.3438ZM15 31C23.2843 31 30 24.2843 30 16C30 7.71573 23.2843 1 15 1C6.71573 1 0 7.71573 0 16C0 24.2843 6.71573 31 15 31Z" fill="#262626"/>
<g clip-path="url(#clip0_1154_12734)">
<path d="M37 16C37 10.4772 41.4772 6 47 6C52.5228 6 57 10.4772 57 16C57 21.5228 52.5228 26 47 26C41.4772 26 37 21.5228 37 16Z" fill="white"/>
<path d="M47 31C43.2725 30.9099 41.7969 28.4182 41.3465 26.0119C41.102 24.7036 41.2093 22.5285 41.3465 21.7521C41.5696 20.4867 41.9299 18.668 42.3288 16.5576C42.8993 13.5336 44.4135 11.8136 47.682 11.2002L53.0283 10.1792C53.1699 9.38563 53.4383 7.28396 53.1938 5.98856C52.7392 3.55648 50.8647 1.03861 47.06 1.00001C38.7729 1.00001 31.9999 7.7129 31.9999 16C31.9999 24.2871 38.7129 31 47 31Z" fill="url(#paint0_linear_1154_12734)"/>
<path d="M46.9999 1C50.7274 1.09008 52.5719 3.5865 53.0222 5.99285C53.2667 7.30112 52.7906 9.47155 52.6534 10.2479C52.4303 11.5133 52.07 13.332 51.6711 15.4424C51.1006 18.4664 49.5864 20.1864 46.3179 20.7998L41.3427 21.7766C41.2012 22.5702 40.7336 24.7149 40.9781 26.0103C41.4328 28.4424 43.1352 30.9614 46.9399 31C55.227 31 61.9999 24.2871 61.9999 16C61.9999 7.7129 55.287 1 46.9999 1Z" fill="url(#paint1_linear_1154_12734)"/>
</g>
<path d="M76.945 27.575C79.3825 27.575 81.04 26.6975 82.0475 26.015V22.8625C80.7475 23.805 79.3175 24.52 77.2375 24.52C73.6625 24.52 71.9725 21.6275 71.9725 15.9725C71.9725 10.155 73.5975 7.3925 77.4325 7.3925C79.22 7.3925 80.8775 8.1725 82.0475 8.92V5.76749C81.0075 5.01999 79.3175 4.33749 77.2375 4.33749C71.225 4.33749 67.975 8.7575 67.975 15.9725C67.975 23.3825 71.355 27.575 76.945 27.575Z" fill="#262626"/>
<path d="M88.5203 4.66249H84.6528V27.25H88.5203V4.66249Z" fill="#262626"/>
<path d="M98.3272 10.5775C94.0697 10.5775 91.1122 13.6 91.1122 19.0925C91.1122 24.5525 94.0697 27.575 98.3272 27.575C102.585 27.575 105.542 24.5525 105.542 19.06C105.542 13.6 102.585 10.5775 98.3272 10.5775ZM98.3272 24.52C96.1822 24.52 95.1097 22.8625 95.1097 19.0925C95.1097 15.29 96.1822 13.6325 98.3272 13.6325C100.472 13.6325 101.545 15.29 101.545 19.06C101.545 22.8625 100.472 24.52 98.3272 24.52Z" fill="#262626"/>
<path d="M117.077 22.635C116.362 23.5125 115.224 24.26 113.827 24.26C112.462 24.26 111.844 23.675 111.844 22.44V10.9025H107.977V22.83C107.977 26.08 109.277 27.51 112.429 27.51C114.737 27.51 116.102 26.665 116.882 25.885H117.077L117.174 27.25H120.944V10.9025H117.077V22.635Z" fill="#262626"/>
<path d="M129.724 27.575C131.544 27.575 133.039 26.73 134.079 25.1375L134.274 27.25H137.849V4.66249H133.981V12.82C133.006 11.3575 131.576 10.5775 129.886 10.5775C126.149 10.5775 123.549 13.73 123.549 19.19C123.549 24.585 126.084 27.575 129.724 27.575ZM130.861 13.6325C132.941 13.6325 133.981 15.29 133.981 19.06C133.981 22.8625 132.876 24.52 130.699 24.52C128.586 24.52 127.546 22.895 127.546 19.19C127.546 15.3225 128.651 13.6325 130.861 13.6325Z" fill="#262626"/>
<defs>
<linearGradient id="paint0_linear_1154_12734" x1="31.9999" y1="31" x2="55.608" y2="2.68144" gradientUnits="userSpaceOnUse">
<stop stop-color="#D2DFFF"/>
<stop offset="1" stop-color="#4E7FFF"/>
</linearGradient>
<linearGradient id="paint1_linear_1154_12734" x1="61.9999" y1="0.999999" x2="38.0222" y2="28.4817" gradientUnits="userSpaceOnUse">
<stop stop-color="#D2DFFF"/>
<stop offset="1" stop-color="#4E7FFF"/>
</linearGradient>
<clipPath id="clip0_1154_12734">
<rect width="30" height="30" fill="white" transform="translate(32 1)"/>
</clipPath>
</defs>
</svg>
